<mxfile host="Electron" agent="Mozilla/5.0 (X11; Linux x86_64) AppleWebKit/537.36 (KHTML, like Gecko) draw.io/26.2.2 Chrome/134.0.6998.178 Electron/35.1.2 Safari/537.36" version="26.2.2">
  <diagram name="Page-1" id="_D2OURBTiPFg9d9ik3Le">
    <mxGraphModel dx="646" dy="424" grid="1" gridSize="10" guides="1" tooltips="1" connect="1" arrows="1" fold="1" page="1" pageScale="1" pageWidth="850" pageHeight="1100" math="0" shadow="0">
      <root>
        <mxCell id="0" />
        <mxCell id="1" parent="0" />
        <mxCell id="tQIeQZjFtu45LaE03AOV-3" value="n" style="shape=parallelogram;html=1;strokeWidth=2;perimeter=parallelogramPerimeter;whiteSpace=wrap;rounded=1;arcSize=12;size=0.23;fontFamily=Roboto Mono;fontSource=https%3A%2F%2Ffonts.googleapis.com%2Fcss%3Ffamily%3DRoboto%2BMono;fontSize=14;fillColor=#f8cecc;strokeColor=#b85450;" vertex="1" parent="1">
          <mxGeometry x="40" y="80" width="70" height="20" as="geometry" />
        </mxCell>
        <mxCell id="tQIeQZjFtu45LaE03AOV-5" value="countOne" style="shape=parallelogram;html=1;strokeWidth=2;perimeter=parallelogramPerimeter;whiteSpace=wrap;rounded=1;arcSize=12;size=0.125;fontFamily=Roboto Mono;fontSource=https%3A%2F%2Ffonts.googleapis.com%2Fcss%3Ffamily%3DRoboto%2BMono;fontSize=14;fillColor=#f8cecc;strokeColor=#b85450;" vertex="1" parent="1">
          <mxGeometry x="510" y="80" width="120" height="20" as="geometry" />
        </mxCell>
        <mxCell id="tQIeQZjFtu45LaE03AOV-7" value="binString" style="rounded=1;whiteSpace=wrap;html=1;absoluteArcSize=1;arcSize=14;strokeWidth=2;fontFamily=Roboto Mono;fontSource=https%3A%2F%2Ffonts.googleapis.com%2Fcss%3Ffamily%3DRoboto%2BMono;fontSize=14;" vertex="1" parent="1">
          <mxGeometry x="260" y="80" width="100" height="20" as="geometry" />
        </mxCell>
        <mxCell id="tQIeQZjFtu45LaE03AOV-8" value="" style="endArrow=block;html=1;rounded=0;exitX=1;exitY=0.5;exitDx=0;exitDy=0;entryX=0;entryY=0.5;entryDx=0;entryDy=0;endFill=1;strokeWidth=1.9685;flowAnimation=1;" edge="1" parent="1" source="tQIeQZjFtu45LaE03AOV-3" target="tQIeQZjFtu45LaE03AOV-7">
          <mxGeometry width="50" height="50" relative="1" as="geometry">
            <mxPoint x="180" y="140" as="sourcePoint" />
            <mxPoint x="230" y="90" as="targetPoint" />
          </mxGeometry>
        </mxCell>
        <mxCell id="tQIeQZjFtu45LaE03AOV-9" value="&lt;font data-font-src=&quot;https://fonts.googleapis.com/css?family=Roboto+Mono&quot; face=&quot;Roboto Mono&quot;&gt;n.toString(2)&lt;/font&gt;" style="edgeLabel;html=1;align=center;verticalAlign=middle;resizable=0;points=[];" vertex="1" connectable="0" parent="tQIeQZjFtu45LaE03AOV-8">
          <mxGeometry x="-0.0551" y="-1" relative="1" as="geometry">
            <mxPoint x="3" y="-16" as="offset" />
          </mxGeometry>
        </mxCell>
        <mxCell id="tQIeQZjFtu45LaE03AOV-10" value="countOne = 0" style="rounded=1;whiteSpace=wrap;html=1;absoluteArcSize=1;arcSize=14;strokeWidth=2;fontFamily=Roboto Mono;fontSource=https%3A%2F%2Ffonts.googleapis.com%2Fcss%3Ffamily%3DRoboto%2BMono;fontSize=14;fillColor=#dae8fc;strokeColor=#6c8ebf;" vertex="1" parent="1">
          <mxGeometry x="70" y="120" width="130" height="20" as="geometry" />
        </mxCell>
        <mxCell id="tQIeQZjFtu45LaE03AOV-13" value="idx = 0" style="rounded=1;whiteSpace=wrap;html=1;absoluteArcSize=1;arcSize=14;strokeWidth=2;fontFamily=Roboto Mono;fontSource=https%3A%2F%2Ffonts.googleapis.com%2Fcss%3Ffamily%3DRoboto%2BMono;fontSize=14;" vertex="1" parent="1">
          <mxGeometry x="100" y="160" width="100" height="20" as="geometry" />
        </mxCell>
        <mxCell id="tQIeQZjFtu45LaE03AOV-15" value="?" style="strokeWidth=2;html=1;shape=mxgraph.flowchart.decision;whiteSpace=wrap;fontFamily=Roboto Mono;fontSource=https%3A%2F%2Ffonts.googleapis.com%2Fcss%3Ffamily%3DRoboto%2BMono;fontSize=14;fillColor=#d5e8d4;strokeColor=#82b366;" vertex="1" parent="1">
          <mxGeometry x="390" y="155" width="30" height="30" as="geometry" />
        </mxCell>
        <mxCell id="tQIeQZjFtu45LaE03AOV-16" value="idx &amp;lt; binString.length" style="rounded=1;whiteSpace=wrap;html=1;absoluteArcSize=1;arcSize=14;strokeWidth=2;fontFamily=Roboto Mono;fontSource=https%3A%2F%2Ffonts.googleapis.com%2Fcss%3Ffamily%3DRoboto%2BMono;fontSize=14;fillColor=#d5e8d4;strokeColor=#82b366;" vertex="1" parent="1">
          <mxGeometry x="230" y="150" width="160" height="40" as="geometry" />
        </mxCell>
        <mxCell id="tQIeQZjFtu45LaE03AOV-17" value="" style="endArrow=block;html=1;rounded=0;exitX=1;exitY=0.5;exitDx=0;exitDy=0;endFill=1;strokeWidth=1.9685;exitPerimeter=0;entryX=0;entryY=0.5;entryDx=0;entryDy=0;edgeStyle=orthogonalEdgeStyle;flowAnimation=1;" edge="1" parent="1" source="tQIeQZjFtu45LaE03AOV-15" target="tQIeQZjFtu45LaE03AOV-5">
          <mxGeometry width="50" height="50" relative="1" as="geometry">
            <mxPoint x="356" y="134.82999999999998" as="sourcePoint" />
            <mxPoint x="500" y="170" as="targetPoint" />
            <Array as="points">
              <mxPoint x="480" y="170" />
              <mxPoint x="480" y="90" />
            </Array>
          </mxGeometry>
        </mxCell>
        <mxCell id="tQIeQZjFtu45LaE03AOV-18" value="&lt;font face=&quot;Roboto Mono&quot;&gt;false&lt;/font&gt;" style="edgeLabel;html=1;align=center;verticalAlign=middle;resizable=0;points=[];" vertex="1" connectable="0" parent="tQIeQZjFtu45LaE03AOV-17">
          <mxGeometry x="-0.0551" y="-1" relative="1" as="geometry">
            <mxPoint x="-31" y="24" as="offset" />
          </mxGeometry>
        </mxCell>
        <mxCell id="tQIeQZjFtu45LaE03AOV-20" value="" style="endArrow=block;html=1;rounded=0;exitX=0.5;exitY=1;exitDx=0;exitDy=0;endFill=1;strokeWidth=1.9685;exitPerimeter=0;flowAnimation=1;" edge="1" parent="1" source="tQIeQZjFtu45LaE03AOV-15">
          <mxGeometry width="50" height="50" relative="1" as="geometry">
            <mxPoint x="404.89" y="200" as="sourcePoint" />
            <mxPoint x="404.89" y="240" as="targetPoint" />
          </mxGeometry>
        </mxCell>
        <mxCell id="tQIeQZjFtu45LaE03AOV-21" value="&lt;font face=&quot;Roboto Mono&quot;&gt;true&lt;/font&gt;" style="edgeLabel;html=1;align=center;verticalAlign=middle;resizable=0;points=[];" vertex="1" connectable="0" parent="tQIeQZjFtu45LaE03AOV-20">
          <mxGeometry x="-0.0551" y="-1" relative="1" as="geometry">
            <mxPoint x="1" y="-6" as="offset" />
          </mxGeometry>
        </mxCell>
        <mxCell id="tQIeQZjFtu45LaE03AOV-22" value="idx++" style="rounded=1;whiteSpace=wrap;html=1;absoluteArcSize=1;arcSize=14;strokeWidth=2;fontFamily=Roboto Mono;fontSource=https%3A%2F%2Ffonts.googleapis.com%2Fcss%3Ffamily%3DRoboto%2BMono;fontSize=14;" vertex="1" parent="1">
          <mxGeometry x="280" y="340" width="60" height="20" as="geometry" />
        </mxCell>
        <mxCell id="tQIeQZjFtu45LaE03AOV-24" value="" style="endArrow=block;html=1;rounded=0;exitX=0.5;exitY=0;exitDx=0;exitDy=0;endFill=1;strokeWidth=1.9685;edgeStyle=orthogonalEdgeStyle;entryX=0.5;entryY=1;entryDx=0;entryDy=0;flowAnimation=1;" edge="1" parent="1" source="tQIeQZjFtu45LaE03AOV-22" target="tQIeQZjFtu45LaE03AOV-16">
          <mxGeometry width="50" height="50" relative="1" as="geometry">
            <mxPoint x="210" y="370" as="sourcePoint" />
            <mxPoint x="210" y="230" as="targetPoint" />
            <Array as="points">
              <mxPoint x="310" y="330" />
              <mxPoint x="310" y="330" />
            </Array>
          </mxGeometry>
        </mxCell>
        <mxCell id="tQIeQZjFtu45LaE03AOV-26" value="binString[idx] &lt;br&gt;=== &quot;1&quot;" style="rounded=1;whiteSpace=wrap;html=1;absoluteArcSize=1;arcSize=14;strokeWidth=2;fontFamily=Roboto Mono;fontSource=https%3A%2F%2Ffonts.googleapis.com%2Fcss%3Ffamily%3DRoboto%2BMono;fontSize=14;fillColor=#d5e8d4;strokeColor=#82b366;" vertex="1" parent="1">
          <mxGeometry x="325" y="240" width="160" height="40" as="geometry" />
        </mxCell>
        <mxCell id="tQIeQZjFtu45LaE03AOV-27" value="?" style="strokeWidth=2;html=1;shape=mxgraph.flowchart.decision;whiteSpace=wrap;fontFamily=Roboto Mono;fontSource=https%3A%2F%2Ffonts.googleapis.com%2Fcss%3Ffamily%3DRoboto%2BMono;fontSize=14;fillColor=#d5e8d4;strokeColor=#82b366;" vertex="1" parent="1">
          <mxGeometry x="485" y="245" width="30" height="30" as="geometry" />
        </mxCell>
        <mxCell id="tQIeQZjFtu45LaE03AOV-28" value="" style="endArrow=block;html=1;rounded=0;exitX=0.5;exitY=1;exitDx=0;exitDy=0;endFill=1;strokeWidth=1.9685;exitPerimeter=0;entryX=0.5;entryY=0;entryDx=0;entryDy=0;" edge="1" parent="1" source="tQIeQZjFtu45LaE03AOV-27" target="tQIeQZjFtu45LaE03AOV-33">
          <mxGeometry width="50" height="50" relative="1" as="geometry">
            <mxPoint x="499.90999999999997" y="280" as="sourcePoint" />
            <mxPoint x="499.79999999999995" y="335" as="targetPoint" />
          </mxGeometry>
        </mxCell>
        <mxCell id="tQIeQZjFtu45LaE03AOV-29" value="&lt;font face=&quot;Roboto Mono&quot;&gt;true&lt;/font&gt;" style="edgeLabel;html=1;align=center;verticalAlign=middle;resizable=0;points=[];" vertex="1" connectable="0" parent="tQIeQZjFtu45LaE03AOV-28">
          <mxGeometry x="-0.0551" y="-1" relative="1" as="geometry">
            <mxPoint x="1" y="-6" as="offset" />
          </mxGeometry>
        </mxCell>
        <mxCell id="tQIeQZjFtu45LaE03AOV-30" value="" style="endArrow=block;html=1;rounded=0;exitX=1;exitY=0.5;exitDx=0;exitDy=0;entryX=0;entryY=0.5;entryDx=0;entryDy=0;endFill=1;strokeWidth=1.9685;" edge="1" parent="1" source="tQIeQZjFtu45LaE03AOV-13" target="tQIeQZjFtu45LaE03AOV-16">
          <mxGeometry width="50" height="50" relative="1" as="geometry">
            <mxPoint x="187" y="230" as="sourcePoint" />
            <mxPoint x="325" y="230" as="targetPoint" />
          </mxGeometry>
        </mxCell>
        <mxCell id="tQIeQZjFtu45LaE03AOV-32" value="" style="endArrow=block;html=1;rounded=0;exitX=0;exitY=0.5;exitDx=0;exitDy=0;entryX=1;entryY=0.5;entryDx=0;entryDy=0;endFill=1;strokeWidth=1.9685;flowAnimation=1;" edge="1" parent="1" source="tQIeQZjFtu45LaE03AOV-33" target="tQIeQZjFtu45LaE03AOV-22">
          <mxGeometry width="50" height="50" relative="1" as="geometry">
            <mxPoint x="540" y="239.61" as="sourcePoint" />
            <mxPoint x="570" y="239.61" as="targetPoint" />
          </mxGeometry>
        </mxCell>
        <mxCell id="tQIeQZjFtu45LaE03AOV-33" value="countOne += 1" style="rounded=1;whiteSpace=wrap;html=1;absoluteArcSize=1;arcSize=14;strokeWidth=2;fontFamily=Roboto Mono;fontSource=https%3A%2F%2Ffonts.googleapis.com%2Fcss%3Ffamily%3DRoboto%2BMono;fontSize=14;fillColor=#dae8fc;strokeColor=#6c8ebf;" vertex="1" parent="1">
          <mxGeometry x="430" y="340" width="140" height="20" as="geometry" />
        </mxCell>
        <mxCell id="tQIeQZjFtu45LaE03AOV-34" value="" style="endArrow=block;html=1;rounded=0;exitX=1;exitY=0.5;exitDx=0;exitDy=0;entryX=0.5;entryY=1;entryDx=0;entryDy=0;endFill=1;strokeWidth=1.9685;exitPerimeter=0;edgeStyle=orthogonalEdgeStyle;flowAnimation=1;" edge="1" parent="1" source="tQIeQZjFtu45LaE03AOV-27" target="tQIeQZjFtu45LaE03AOV-22">
          <mxGeometry width="50" height="50" relative="1" as="geometry">
            <mxPoint x="450" y="360" as="sourcePoint" />
            <mxPoint x="390" y="360" as="targetPoint" />
            <Array as="points">
              <mxPoint x="610" y="260" />
              <mxPoint x="610" y="400" />
              <mxPoint x="310" y="400" />
            </Array>
          </mxGeometry>
        </mxCell>
        <mxCell id="tQIeQZjFtu45LaE03AOV-35" value="&lt;font face=&quot;Roboto Mono&quot;&gt;false&lt;/font&gt;" style="edgeLabel;html=1;align=center;verticalAlign=middle;resizable=0;points=[];" vertex="1" connectable="0" parent="tQIeQZjFtu45LaE03AOV-34">
          <mxGeometry x="-0.8654" relative="1" as="geometry">
            <mxPoint as="offset" />
          </mxGeometry>
        </mxCell>
        <mxCell id="tQIeQZjFtu45LaE03AOV-38" value="" style="endArrow=block;html=1;rounded=0;entryX=0.5;entryY=0;entryDx=0;entryDy=0;endFill=1;strokeWidth=1.9685;exitX=0.5;exitY=1;exitDx=0;exitDy=0;flowAnimation=1;" edge="1" parent="1" source="tQIeQZjFtu45LaE03AOV-7" target="tQIeQZjFtu45LaE03AOV-16">
          <mxGeometry width="50" height="50" relative="1" as="geometry">
            <mxPoint x="310" y="110" as="sourcePoint" />
            <mxPoint x="240" y="180" as="targetPoint" />
          </mxGeometry>
        </mxCell>
        <mxCell id="tQIeQZjFtu45LaE03AOV-39" value="" style="endArrow=block;html=1;rounded=0;endFill=1;strokeWidth=1.9685;flowAnimation=1;" edge="1" parent="1">
          <mxGeometry width="50" height="50" relative="1" as="geometry">
            <mxPoint x="200" y="130" as="sourcePoint" />
            <mxPoint x="310" y="130" as="targetPoint" />
          </mxGeometry>
        </mxCell>
        <mxCell id="tQIeQZjFtu45LaE03AOV-40" value="10" style="text;html=1;align=center;verticalAlign=middle;whiteSpace=wrap;rounded=0;fontFamily=Roboto Mono;fontSource=https%3A%2F%2Ffonts.googleapis.com%2Fcss%3Ffamily%3DRoboto%2BMono;fontSize=16;" vertex="1" parent="1">
          <mxGeometry x="40" y="40" width="60" height="30" as="geometry" />
        </mxCell>
        <mxCell id="tQIeQZjFtu45LaE03AOV-41" value="&quot;1010&quot;" style="text;html=1;align=center;verticalAlign=middle;whiteSpace=wrap;rounded=0;fontFamily=Roboto Mono;fontSource=https%3A%2F%2Ffonts.googleapis.com%2Fcss%3Ffamily%3DRoboto%2BMono;fontSize=16;" vertex="1" parent="1">
          <mxGeometry x="280" y="40" width="60" height="30" as="geometry" />
        </mxCell>
        <mxCell id="tQIeQZjFtu45LaE03AOV-42" value="2" style="text;html=1;align=center;verticalAlign=middle;whiteSpace=wrap;rounded=0;fontFamily=Roboto Mono;fontSource=https%3A%2F%2Ffonts.googleapis.com%2Fcss%3Ffamily%3DRoboto%2BMono;fontSize=16;" vertex="1" parent="1">
          <mxGeometry x="540" y="40" width="60" height="30" as="geometry" />
        </mxCell>
      </root>
    </mxGraphModel>
  </diagram>
</mxfile>
